<?xml version="1.0" encoding="UTF-8" standalone="no"?><svg xmlns="http://www.w3.org/2000/svg" xmlns:xlink="http://www.w3.org/1999/xlink" clip-rule="evenodd" stroke-miterlimit="10" viewBox="0 0 1024 768"><desc>SVG generated by Keynote</desc><defs></defs><g transform="matrix(1.00, 0.00, -0.00, -1.00, 0.0, 768.0)"><path d="M 0.0 768.0 L 1024.0 768.0 L 1024.0 0.0 L 0.0 0.0 Z M 0.0 768.0 " fill="#FEFFFF"></path><text xml:space="preserve" font-family="Helvetica-Light,Helvetica" font-size="60.0" fill="#000000" transform="matrix(1.00, 0.00, -0.00, -1.00, 79.0, 625.8)">C</text><text xml:space="preserve" font-family="Helvetica-Light,Helvetica" font-size="60.0" fill="#000000" transform="matrix(1.00, 0.00, -0.00, -1.00, 122.3, 625.8)">o</text><text xml:space="preserve" font-family="Helvetica-Light,Helvetica" font-size="60.0" fill="#000000" transform="matrix(1.00, 0.00, -0.00, -1.00, 155.7, 625.8)">n</text><text xml:space="preserve" font-family="Helvetica-Light,Helvetica" font-size="60.0" fill="#000000" transform="matrix(1.00, 0.00, -0.00, -1.00, 189.0, 625.8)">s</text><text xml:space="preserve" font-family="Helvetica-Light,Helvetica" font-size="60.0" fill="#000000" transform="matrix(1.00, 0.00, -0.00, -1.00, 219.0, 625.8)">t</text><text xml:space="preserve" font-family="Helvetica-Light,Helvetica" font-size="60.0" fill="#000000" transform="matrix(1.00, 0.00, -0.00, -1.00, 235.7, 625.8)">,</text><text xml:space="preserve" font-family="Helvetica-Light,Helvetica" font-size="60.0" fill="#000000" transform="matrix(1.00, 0.00, -0.00, -1.00, 252.4, 625.8)"> </text><text xml:space="preserve" font-family="Helvetica-Light,Helvetica" font-size="60.0" fill="#000000" transform="matrix(1.00, 0.00, -0.00, -1.00, 269.1, 625.8)">V</text><text xml:space="preserve" font-family="Helvetica-Light,Helvetica" font-size="60.0" fill="#000000" transform="matrix(1.00, 0.00, -0.00, -1.00, 302.4, 625.8)">a</text><text xml:space="preserve" font-family="Helvetica-Light,Helvetica" font-size="60.0" fill="#000000" transform="matrix(1.00, 0.00, -0.00, -1.00, 335.8, 625.8)">r</text><text xml:space="preserve" font-family="Helvetica-Light,Helvetica" font-size="60.0" fill="#000000" transform="matrix(1.00, 0.00, -0.00, -1.00, 355.8, 625.8)">i</text><text xml:space="preserve" font-family="Helvetica-Light,Helvetica" font-size="60.0" fill="#000000" transform="matrix(1.00, 0.00, -0.00, -1.00, 369.1, 625.8)">a</text><text xml:space="preserve" font-family="Helvetica-Light,Helvetica" font-size="60.0" fill="#000000" transform="matrix(1.00, 0.00, -0.00, -1.00, 402.5, 625.8)">b</text><text xml:space="preserve" font-family="Helvetica-Light,Helvetica" font-size="60.0" fill="#000000" transform="matrix(1.00, 0.00, -0.00, -1.00, 439.1, 625.8)">l</text><text xml:space="preserve" font-family="Helvetica-Light,Helvetica" font-size="60.0" fill="#000000" transform="matrix(1.00, 0.00, -0.00, -1.00, 452.4, 625.8)">e</text><text xml:space="preserve" font-family="Helvetica-Light,Helvetica" font-size="60.0" fill="#000000" transform="matrix(1.00, 0.00, -0.00, -1.00, 485.8, 625.8)">s</text><text xml:space="preserve" font-family="Helvetica-Light,Helvetica" font-size="60.0" fill="#000000" transform="matrix(1.00, 0.00, -0.00, -1.00, 515.8, 625.8)">,</text><text xml:space="preserve" font-family="Helvetica-Light,Helvetica" font-size="60.0" fill="#000000" transform="matrix(1.00, 0.00, -0.00, -1.00, 532.5, 625.8)"> </text><text xml:space="preserve" font-family="Helvetica-Light,Helvetica" font-size="60.0" fill="#000000" transform="matrix(1.00, 0.00, -0.00, -1.00, 549.2, 625.8)">D</text><text xml:space="preserve" font-family="Helvetica-Light,Helvetica" font-size="60.0" fill="#000000" transform="matrix(1.00, 0.00, -0.00, -1.00, 592.5, 625.8)">e</text><text xml:space="preserve" font-family="Helvetica-Light,Helvetica" font-size="60.0" fill="#000000" transform="matrix(1.00, 0.00, -0.00, -1.00, 625.8, 625.8)">f</text><text xml:space="preserve" font-family="Helvetica-Light,Helvetica" font-size="60.0" fill="#000000" transform="matrix(1.00, 0.00, -0.00, -1.00, 642.5, 625.8)">a</text><text xml:space="preserve" font-family="Helvetica-Light,Helvetica" font-size="60.0" fill="#000000" transform="matrix(1.00, 0.00, -0.00, -1.00, 675.9, 625.8)">u</text><text xml:space="preserve" font-family="Helvetica-Light,Helvetica" font-size="60.0" fill="#000000" transform="matrix(1.00, 0.00, -0.00, -1.00, 709.2, 625.8)">l</text><text xml:space="preserve" font-family="Helvetica-Light,Helvetica" font-size="60.0" fill="#000000" transform="matrix(1.00, 0.00, -0.00, -1.00, 722.6, 625.8)">t</text><text xml:space="preserve" font-family="Helvetica-Light,Helvetica" font-size="60.0" fill="#000000" transform="matrix(1.00, 0.00, -0.00, -1.00, 739.2, 625.8)"> </text><text xml:space="preserve" font-family="Helvetica-Light,Helvetica" font-size="60.0" fill="#000000" transform="matrix(1.00, 0.00, -0.00, -1.00, 755.9, 625.8)">t</text><text xml:space="preserve" font-family="Helvetica-Light,Helvetica" font-size="60.0" fill="#000000" transform="matrix(1.00, 0.00, -0.00, -1.00, 772.6, 625.8)">y</text><text xml:space="preserve" font-family="Helvetica-Light,Helvetica" font-size="60.0" fill="#000000" transform="matrix(1.00, 0.00, -0.00, -1.00, 802.6, 625.8)">p</text><text xml:space="preserve" font-family="Helvetica-Light,Helvetica" font-size="60.0" fill="#000000" transform="matrix(1.00, 0.00, -0.00, -1.00, 839.3, 625.8)">e</text><text xml:space="preserve" font-family="Helvetica-Light,Helvetica" font-size="60.0" fill="#000000" transform="matrix(1.00, 0.00, -0.00, -1.00, 872.6, 625.8)">s</text><text xml:space="preserve" font-family="CourierNewPS-BoldMT,Courier New" font-weight="bold" font-size="29.0" fill="#000000" transform="matrix(1.00, 0.00, -0.00, -1.00, 81.0, 496.2)">c</text><text xml:space="preserve" font-family="CourierNewPS-BoldMT,Courier New" font-weight="bold" font-size="29.0" fill="#000000" transform="matrix(1.00, 0.00, -0.00, -1.00, 98.4, 496.2)">o</text><text xml:space="preserve" font-family="CourierNewPS-BoldMT,Courier New" font-weight="bold" font-size="29.0" fill="#000000" transform="matrix(1.00, 0.00, -0.00, -1.00, 115.8, 496.2)">n</text><text xml:space="preserve" font-family="CourierNewPS-BoldMT,Courier New" font-weight="bold" font-size="29.0" fill="#000000" transform="matrix(1.00, 0.00, -0.00, -1.00, 133.2, 496.2)">s</text><text xml:space="preserve" font-family="CourierNewPS-BoldMT,Courier New" font-weight="bold" font-size="29.0" fill="#000000" transform="matrix(1.00, 0.00, -0.00, -1.00, 150.6, 496.2)">t</text><text xml:space="preserve" font-family="CourierNewPSMT,Courier New" font-size="29.0" fill="#000000" transform="matrix(1.00, 0.00, -0.00, -1.00, 168.0, 496.2)"> </text><text xml:space="preserve" font-family="CourierNewPSMT,Courier New" font-size="29.0" fill="#000000" transform="matrix(1.00, 0.00, -0.00, -1.00, 185.4, 496.2)">(</text><text xml:space="preserve" font-family="CourierNewPSMT,Courier New" font-size="29.0" fill="#000000" transform="matrix(1.00, 0.00, -0.00, -1.00, 202.8, 496.2)"> </text><text xml:space="preserve" font-family="CourierNewPSMT,Courier New" font-size="29.0" fill="#000000" transform="matrix(1.00, 0.00, -0.00, -1.00, 81.0, 463.2)"> </text><text xml:space="preserve" font-family="CourierNewPSMT,Courier New" font-size="29.0" fill="#000000" transform="matrix(1.00, 0.00, -0.00, -1.00, 117.0, 463.2)">s</text><text xml:space="preserve" font-family="CourierNewPSMT,Courier New" font-size="29.0" fill="#000000" transform="matrix(1.00, 0.00, -0.00, -1.00, 134.4, 463.2)">t</text><text xml:space="preserve" font-family="CourierNewPSMT,Courier New" font-size="29.0" fill="#000000" transform="matrix(1.00, 0.00, -0.00, -1.00, 151.8, 463.2)">r</text><text xml:space="preserve" font-family="CourierNewPSMT,Courier New" font-size="29.0" fill="#000000" transform="matrix(1.00, 0.00, -0.00, -1.00, 169.2, 463.2)">i</text><text xml:space="preserve" font-family="CourierNewPSMT,Courier New" font-size="29.0" fill="#000000" transform="matrix(1.00, 0.00, -0.00, -1.00, 186.7, 463.2)">n</text><text xml:space="preserve" font-family="CourierNewPSMT,Courier New" font-size="29.0" fill="#000000" transform="matrix(1.00, 0.00, -0.00, -1.00, 204.1, 463.2)">g</text><text xml:space="preserve" font-family="CourierNewPSMT,Courier New" font-size="29.0" fill="#000000" transform="matrix(1.00, 0.00, -0.00, -1.00, 221.5, 463.2)">C</text><text xml:space="preserve" font-family="CourierNewPSMT,Courier New" font-size="29.0" fill="#000000" transform="matrix(1.00, 0.00, -0.00, -1.00, 238.9, 463.2)">o</text><text xml:space="preserve" font-family="CourierNewPSMT,Courier New" font-size="29.0" fill="#000000" transform="matrix(1.00, 0.00, -0.00, -1.00, 256.3, 463.2)">n</text><text xml:space="preserve" font-family="CourierNewPSMT,Courier New" font-size="29.0" fill="#000000" transform="matrix(1.00, 0.00, -0.00, -1.00, 273.7, 463.2)">s</text><text xml:space="preserve" font-family="CourierNewPSMT,Courier New" font-size="29.0" fill="#000000" transform="matrix(1.00, 0.00, -0.00, -1.00, 291.1, 463.2)">t</text><text xml:space="preserve" font-family="CourierNewPSMT,Courier New" font-size="29.0" fill="#000000" transform="matrix(1.00, 0.00, -0.00, -1.00, 308.6, 463.2)"> </text><text xml:space="preserve" font-family="CourierNewPSMT,Courier New" font-size="29.0" fill="#000000" transform="matrix(1.00, 0.00, -0.00, -1.00, 326.0, 463.2)">=</text><text xml:space="preserve" font-family="CourierNewPSMT,Courier New" font-size="29.0" fill="#000000" transform="matrix(1.00, 0.00, -0.00, -1.00, 343.4, 463.2)"> </text><text xml:space="preserve" font-family="CourierNewPSMT,Courier New" font-size="29.0" fill="#CC1C00" transform="matrix(1.00, 0.00, -0.00, -1.00, 360.6, 463.2)">"</text><text xml:space="preserve" font-family="CourierNewPSMT,Courier New" font-size="29.0" fill="#CC1C00" transform="matrix(1.00, 0.00, -0.00, -1.00, 378.0, 463.2)">s</text><text xml:space="preserve" font-family="CourierNewPSMT,Courier New" font-size="29.0" fill="#CC1C00" transform="matrix(1.00, 0.00, -0.00, -1.00, 395.5, 463.2)">t</text><text xml:space="preserve" font-family="CourierNewPSMT,Courier New" font-size="29.0" fill="#CC1C00" transform="matrix(1.00, 0.00, -0.00, -1.00, 412.9, 463.2)">r</text><text xml:space="preserve" font-family="CourierNewPSMT,Courier New" font-size="29.0" fill="#CC1C00" transform="matrix(1.00, 0.00, -0.00, -1.00, 430.3, 463.2)">i</text><text xml:space="preserve" font-family="CourierNewPSMT,Courier New" font-size="29.0" fill="#CC1C00" transform="matrix(1.00, 0.00, -0.00, -1.00, 447.7, 463.2)">n</text><text xml:space="preserve" font-family="CourierNewPSMT,Courier New" font-size="29.0" fill="#CC1C00" transform="matrix(1.00, 0.00, -0.00, -1.00, 465.1, 463.2)">g</text><text xml:space="preserve" font-family="CourierNewPSMT,Courier New" font-size="29.0" fill="#CC1C00" transform="matrix(1.00, 0.00, -0.00, -1.00, 482.5, 463.2)">"</text><text xml:space="preserve" font-family="CourierNewPSMT,Courier New" font-size="29.0" fill="#000000" transform="matrix(1.00, 0.00, -0.00, -1.00, 499.9, 463.2)"> </text><text xml:space="preserve" font-family="CourierNewPSMT,Courier New" font-size="29.0" fill="#000000" transform="matrix(1.00, 0.00, -0.00, -1.00, 81.0, 430.2)"> </text><text xml:space="preserve" font-family="CourierNewPSMT,Courier New" font-size="29.0" fill="#000000" transform="matrix(1.00, 0.00, -0.00, -1.00, 117.0, 430.2)">i</text><text xml:space="preserve" font-family="CourierNewPSMT,Courier New" font-size="29.0" fill="#000000" transform="matrix(1.00, 0.00, -0.00, -1.00, 134.4, 430.2)">n</text><text xml:space="preserve" font-family="CourierNewPSMT,Courier New" font-size="29.0" fill="#000000" transform="matrix(1.00, 0.00, -0.00, -1.00, 151.8, 430.2)">t</text><text xml:space="preserve" font-family="CourierNewPSMT,Courier New" font-size="29.0" fill="#000000" transform="matrix(1.00, 0.00, -0.00, -1.00, 169.2, 430.2)">C</text><text xml:space="preserve" font-family="CourierNewPSMT,Courier New" font-size="29.0" fill="#000000" transform="matrix(1.00, 0.00, -0.00, -1.00, 186.7, 430.2)">o</text><text xml:space="preserve" font-family="CourierNewPSMT,Courier New" font-size="29.0" fill="#000000" transform="matrix(1.00, 0.00, -0.00, -1.00, 204.1, 430.2)">n</text><text xml:space="preserve" font-family="CourierNewPSMT,Courier New" font-size="29.0" fill="#000000" transform="matrix(1.00, 0.00, -0.00, -1.00, 221.5, 430.2)">s</text><text xml:space="preserve" font-family="CourierNewPSMT,Courier New" font-size="29.0" fill="#000000" transform="matrix(1.00, 0.00, -0.00, -1.00, 238.9, 430.2)">t</text><text xml:space="preserve" font-family="CourierNewPSMT,Courier New" font-size="29.0" fill="#000000" transform="matrix(1.00, 0.00, -0.00, -1.00, 256.3, 430.2)"> </text><text xml:space="preserve" font-family="CourierNewPSMT,Courier New" font-size="29.0" fill="#000000" transform="matrix(1.00, 0.00, -0.00, -1.00, 273.7, 430.2)"> </text><text xml:space="preserve" font-family="CourierNewPSMT,Courier New" font-size="29.0" fill="#000000" transform="matrix(1.00, 0.00, -0.00, -1.00, 291.1, 430.2)"> </text><text xml:space="preserve" font-family="CourierNewPSMT,Courier New" font-size="29.0" fill="#000000" transform="matrix(1.00, 0.00, -0.00, -1.00, 308.6, 430.2)"> </text><text xml:space="preserve" font-family="CourierNewPSMT,Courier New" font-size="29.0" fill="#000000" transform="matrix(1.00, 0.00, -0.00, -1.00, 326.0, 430.2)">=</text><text xml:space="preserve" font-family="CourierNewPSMT,Courier New" font-size="29.0" fill="#000000" transform="matrix(1.00, 0.00, -0.00, -1.00, 343.4, 430.2)"> </text><text xml:space="preserve" font-family="CourierNewPSMT,Courier New" font-size="29.0" fill="#BE8F00" transform="matrix(1.00, 0.00, -0.00, -1.00, 360.6, 430.2)">2</text><text xml:space="preserve" font-family="CourierNewPSMT,Courier New" font-size="29.0" fill="#000000" transform="matrix(1.00, 0.00, -0.00, -1.00, 378.0, 430.2)"> </text><text xml:space="preserve" font-family="CourierNewPSMT,Courier New" font-size="29.0" fill="#000000" transform="matrix(1.00, 0.00, -0.00, -1.00, 81.0, 397.2)">)</text><text xml:space="preserve" font-family="CourierNewPSMT,Courier New" font-size="29.0" fill="#000000" transform="matrix(1.00, 0.00, -0.00, -1.00, 98.4, 397.2)"> </text><text xml:space="preserve" font-family="CourierNewPS-BoldMT,Courier New" font-weight="bold" font-size="29.0" fill="#000000" transform="matrix(1.00, 0.00, -0.00, -1.00, 81.0, 364.2)">c</text><text xml:space="preserve" font-family="CourierNewPS-BoldMT,Courier New" font-weight="bold" font-size="29.0" fill="#000000" transform="matrix(1.00, 0.00, -0.00, -1.00, 98.4, 364.2)">o</text><text xml:space="preserve" font-family="CourierNewPS-BoldMT,Courier New" font-weight="bold" font-size="29.0" fill="#000000" transform="matrix(1.00, 0.00, -0.00, -1.00, 115.8, 364.2)">n</text><text xml:space="preserve" font-family="CourierNewPS-BoldMT,Courier New" font-weight="bold" font-size="29.0" fill="#000000" transform="matrix(1.00, 0.00, -0.00, -1.00, 133.2, 364.2)">s</text><text xml:space="preserve" font-family="CourierNewPS-BoldMT,Courier New" font-weight="bold" font-size="29.0" fill="#000000" transform="matrix(1.00, 0.00, -0.00, -1.00, 150.6, 364.2)">t</text><text xml:space="preserve" font-family="CourierNewPSMT,Courier New" font-size="29.0" fill="#000000" transform="matrix(1.00, 0.00, -0.00, -1.00, 168.0, 364.2)"> </text><text xml:space="preserve" font-family="CourierNewPSMT,Courier New" font-size="29.0" fill="#000000" transform="matrix(1.00, 0.00, -0.00, -1.00, 185.4, 364.2)">s</text><text xml:space="preserve" font-family="CourierNewPSMT,Courier New" font-size="29.0" fill="#000000" transform="matrix(1.00, 0.00, -0.00, -1.00, 202.8, 364.2)">t</text><text xml:space="preserve" font-family="CourierNewPSMT,Courier New" font-size="29.0" fill="#000000" transform="matrix(1.00, 0.00, -0.00, -1.00, 220.2, 364.2)">r</text><text xml:space="preserve" font-family="CourierNewPSMT,Courier New" font-size="29.0" fill="#000000" transform="matrix(1.00, 0.00, -0.00, -1.00, 237.6, 364.2)">i</text><text xml:space="preserve" font-family="CourierNewPSMT,Courier New" font-size="29.0" fill="#000000" transform="matrix(1.00, 0.00, -0.00, -1.00, 255.0, 364.2)">n</text><text xml:space="preserve" font-family="CourierNewPSMT,Courier New" font-size="29.0" fill="#000000" transform="matrix(1.00, 0.00, -0.00, -1.00, 272.4, 364.2)">g</text><text xml:space="preserve" font-family="CourierNewPSMT,Courier New" font-size="29.0" fill="#000000" transform="matrix(1.00, 0.00, -0.00, -1.00, 289.9, 364.2)">C</text><text xml:space="preserve" font-family="CourierNewPSMT,Courier New" font-size="29.0" fill="#000000" transform="matrix(1.00, 0.00, -0.00, -1.00, 307.3, 364.2)">o</text><text xml:space="preserve" font-family="CourierNewPSMT,Courier New" font-size="29.0" fill="#000000" transform="matrix(1.00, 0.00, -0.00, -1.00, 324.7, 364.2)">n</text><text xml:space="preserve" font-family="CourierNewPSMT,Courier New" font-size="29.0" fill="#000000" transform="matrix(1.00, 0.00, -0.00, -1.00, 342.1, 364.2)">s</text><text xml:space="preserve" font-family="CourierNewPSMT,Courier New" font-size="29.0" fill="#000000" transform="matrix(1.00, 0.00, -0.00, -1.00, 359.5, 364.2)">t</text><text xml:space="preserve" font-family="CourierNewPSMT,Courier New" font-size="29.0" fill="#000000" transform="matrix(1.00, 0.00, -0.00, -1.00, 376.9, 364.2)">1</text><text xml:space="preserve" font-family="CourierNewPSMT,Courier New" font-size="29.0" fill="#000000" transform="matrix(1.00, 0.00, -0.00, -1.00, 394.3, 364.2)"> </text><text xml:space="preserve" font-family="CourierNewPSMT,Courier New" font-size="29.0" fill="#000000" transform="matrix(1.00, 0.00, -0.00, -1.00, 411.7, 364.2)">=</text><text xml:space="preserve" font-family="CourierNewPSMT,Courier New" font-size="29.0" fill="#000000" transform="matrix(1.00, 0.00, -0.00, -1.00, 429.1, 364.2)"> </text><text xml:space="preserve" font-family="CourierNewPSMT,Courier New" font-size="29.0" fill="#CC1C00" transform="matrix(1.00, 0.00, -0.00, -1.00, 446.5, 364.2)">"</text><text xml:space="preserve" font-family="CourierNewPSMT,Courier New" font-size="29.0" fill="#CC1C00" transform="matrix(1.00, 0.00, -0.00, -1.00, 463.9, 364.2)">s</text><text xml:space="preserve" font-family="CourierNewPSMT,Courier New" font-size="29.0" fill="#CC1C00" transform="matrix(1.00, 0.00, -0.00, -1.00, 481.3, 364.2)">t</text><text xml:space="preserve" font-family="CourierNewPSMT,Courier New" font-size="29.0" fill="#CC1C00" transform="matrix(1.00, 0.00, -0.00, -1.00, 498.7, 364.2)">r</text><text xml:space="preserve" font-family="CourierNewPSMT,Courier New" font-size="29.0" fill="#CC1C00" transform="matrix(1.00, 0.00, -0.00, -1.00, 516.1, 364.2)">i</text><text xml:space="preserve" font-family="CourierNewPSMT,Courier New" font-size="29.0" fill="#CC1C00" transform="matrix(1.00, 0.00, -0.00, -1.00, 533.5, 364.2)">n</text><text xml:space="preserve" font-family="CourierNewPSMT,Courier New" font-size="29.0" fill="#CC1C00" transform="matrix(1.00, 0.00, -0.00, -1.00, 550.9, 364.2)">g</text><text xml:space="preserve" font-family="CourierNewPSMT,Courier New" font-size="29.0" fill="#CC1C00" transform="matrix(1.00, 0.00, -0.00, -1.00, 568.3, 364.2)">1</text><text xml:space="preserve" font-family="CourierNewPSMT,Courier New" font-size="29.0" fill="#CC1C00" transform="matrix(1.00, 0.00, -0.00, -1.00, 585.7, 364.2)">"</text><text xml:space="preserve" font-family="CourierNewPSMT,Courier New" font-size="29.0" fill="#000000" transform="matrix(1.00, 0.00, -0.00, -1.00, 603.1, 364.2)"> </text><text xml:space="preserve" font-family="CourierNewPS-BoldMT,Courier New" font-weight="bold" font-size="29.0" fill="#000000" transform="matrix(1.00, 0.00, -0.00, -1.00, 81.0, 298.2)">v</text><text xml:space="preserve" font-family="CourierNewPS-BoldMT,Courier New" font-weight="bold" font-size="29.0" fill="#000000" transform="matrix(1.00, 0.00, -0.00, -1.00, 98.4, 298.2)">a</text><text xml:space="preserve" font-family="CourierNewPS-BoldMT,Courier New" font-weight="bold" font-size="29.0" fill="#000000" transform="matrix(1.00, 0.00, -0.00, -1.00, 115.8, 298.2)">r</text><text xml:space="preserve" font-family="CourierNewPSMT,Courier New" font-size="29.0" fill="#000000" transform="matrix(1.00, 0.00, -0.00, -1.00, 133.2, 298.2)"> </text><text xml:space="preserve" font-family="CourierNewPSMT,Courier New" font-size="29.0" fill="#000000" transform="matrix(1.00, 0.00, -0.00, -1.00, 150.6, 298.2)">a</text><text xml:space="preserve" font-family="CourierNewPSMT,Courier New" font-size="29.0" fill="#000000" transform="matrix(1.00, 0.00, -0.00, -1.00, 168.0, 298.2)">S</text><text xml:space="preserve" font-family="CourierNewPSMT,Courier New" font-size="29.0" fill="#000000" transform="matrix(1.00, 0.00, -0.00, -1.00, 185.4, 298.2)">t</text><text xml:space="preserve" font-family="CourierNewPSMT,Courier New" font-size="29.0" fill="#000000" transform="matrix(1.00, 0.00, -0.00, -1.00, 202.8, 298.2)">r</text><text xml:space="preserve" font-family="CourierNewPSMT,Courier New" font-size="29.0" fill="#000000" transform="matrix(1.00, 0.00, -0.00, -1.00, 220.2, 298.2)"> </text><text xml:space="preserve" font-family="CourierNewPSMT,Courier New" font-size="29.0" fill="#006DBC" transform="matrix(1.00, 0.00, -0.00, -1.00, 237.6, 298.2)">s</text><text xml:space="preserve" font-family="CourierNewPSMT,Courier New" font-size="29.0" fill="#006DBC" transform="matrix(1.00, 0.00, -0.00, -1.00, 255.0, 298.2)">t</text><text xml:space="preserve" font-family="CourierNewPSMT,Courier New" font-size="29.0" fill="#006DBC" transform="matrix(1.00, 0.00, -0.00, -1.00, 272.4, 298.2)">r</text><text xml:space="preserve" font-family="CourierNewPSMT,Courier New" font-size="29.0" fill="#006DBC" transform="matrix(1.00, 0.00, -0.00, -1.00, 289.8, 298.2)">i</text><text xml:space="preserve" font-family="CourierNewPSMT,Courier New" font-size="29.0" fill="#006DBC" transform="matrix(1.00, 0.00, -0.00, -1.00, 307.2, 298.2)">n</text><text xml:space="preserve" font-family="CourierNewPSMT,Courier New" font-size="29.0" fill="#006DBC" transform="matrix(1.00, 0.00, -0.00, -1.00, 324.7, 298.2)">g</text><text xml:space="preserve" font-family="CourierNewPSMT,Courier New" font-size="29.0" fill="#000000" transform="matrix(1.00, 0.00, -0.00, -1.00, 342.0, 298.2)"> </text><text xml:space="preserve" font-family="CourierNewPSMT,Courier New" font-size="29.0" fill="#000000" transform="matrix(1.00, 0.00, -0.00, -1.00, 81.0, 265.2)">a</text><text xml:space="preserve" font-family="CourierNewPSMT,Courier New" font-size="29.0" fill="#000000" transform="matrix(1.00, 0.00, -0.00, -1.00, 98.4, 265.2)">S</text><text xml:space="preserve" font-family="CourierNewPSMT,Courier New" font-size="29.0" fill="#000000" transform="matrix(1.00, 0.00, -0.00, -1.00, 115.8, 265.2)">t</text><text xml:space="preserve" font-family="CourierNewPSMT,Courier New" font-size="29.0" fill="#000000" transform="matrix(1.00, 0.00, -0.00, -1.00, 133.2, 265.2)">r</text><text xml:space="preserve" font-family="CourierNewPSMT,Courier New" font-size="29.0" fill="#000000" transform="matrix(1.00, 0.00, -0.00, -1.00, 150.6, 265.2)"> </text><text xml:space="preserve" font-family="CourierNewPSMT,Courier New" font-size="29.0" fill="#000000" transform="matrix(1.00, 0.00, -0.00, -1.00, 168.0, 265.2)">=</text><text xml:space="preserve" font-family="CourierNewPSMT,Courier New" font-size="29.0" fill="#000000" transform="matrix(1.00, 0.00, -0.00, -1.00, 185.4, 265.2)"> </text><text xml:space="preserve" font-family="CourierNewPSMT,Courier New" font-size="29.0" fill="#000000" transform="matrix(1.00, 0.00, -0.00, -1.00, 202.8, 265.2)">s</text><text xml:space="preserve" font-family="CourierNewPSMT,Courier New" font-size="29.0" fill="#000000" transform="matrix(1.00, 0.00, -0.00, -1.00, 220.2, 265.2)">t</text><text xml:space="preserve" font-family="CourierNewPSMT,Courier New" font-size="29.0" fill="#000000" transform="matrix(1.00, 0.00, -0.00, -1.00, 237.7, 265.2)">r</text><text xml:space="preserve" font-family="CourierNewPSMT,Courier New" font-size="29.0" fill="#000000" transform="matrix(1.00, 0.00, -0.00, -1.00, 255.1, 265.2)">i</text><text xml:space="preserve" font-family="CourierNewPSMT,Courier New" font-size="29.0" fill="#000000" transform="matrix(1.00, 0.00, -0.00, -1.00, 272.5, 265.2)">n</text><text xml:space="preserve" font-family="CourierNewPSMT,Courier New" font-size="29.0" fill="#000000" transform="matrix(1.00, 0.00, -0.00, -1.00, 289.9, 265.2)">g</text><text xml:space="preserve" font-family="CourierNewPSMT,Courier New" font-size="29.0" fill="#000000" transform="matrix(1.00, 0.00, -0.00, -1.00, 307.3, 265.2)">C</text><text xml:space="preserve" font-family="CourierNewPSMT,Courier New" font-size="29.0" fill="#000000" transform="matrix(1.00, 0.00, -0.00, -1.00, 324.7, 265.2)">o</text><text xml:space="preserve" font-family="CourierNewPSMT,Courier New" font-size="29.0" fill="#000000" transform="matrix(1.00, 0.00, -0.00, -1.00, 342.1, 265.2)">n</text><text xml:space="preserve" font-family="CourierNewPSMT,Courier New" font-size="29.0" fill="#000000" transform="matrix(1.00, 0.00, -0.00, -1.00, 359.5, 265.2)">s</text><text xml:space="preserve" font-family="CourierNewPSMT,Courier New" font-size="29.0" fill="#000000" transform="matrix(1.00, 0.00, -0.00, -1.00, 376.9, 265.2)">t</text><text xml:space="preserve" font-family="CourierNewPSMT,Courier New" font-size="29.0" fill="#000000" transform="matrix(1.00, 0.00, -0.00, -1.00, 394.3, 265.2)"> </text><text xml:space="preserve" font-family="CourierNewPSMT,Courier New" font-size="29.0" fill="#000000" transform="matrix(1.00, 0.00, -0.00, -1.00, 81.0, 199.2)">d</text><text xml:space="preserve" font-family="CourierNewPSMT,Courier New" font-size="29.0" fill="#000000" transform="matrix(1.00, 0.00, -0.00, -1.00, 98.4, 199.2)">e</text><text xml:space="preserve" font-family="CourierNewPSMT,Courier New" font-size="29.0" fill="#000000" transform="matrix(1.00, 0.00, -0.00, -1.00, 115.8, 199.2)">f</text><text xml:space="preserve" font-family="CourierNewPSMT,Courier New" font-size="29.0" fill="#000000" transform="matrix(1.00, 0.00, -0.00, -1.00, 133.2, 199.2)">T</text><text xml:space="preserve" font-family="CourierNewPSMT,Courier New" font-size="29.0" fill="#000000" transform="matrix(1.00, 0.00, -0.00, -1.00, 150.6, 199.2)">y</text><text xml:space="preserve" font-family="CourierNewPSMT,Courier New" font-size="29.0" fill="#000000" transform="matrix(1.00, 0.00, -0.00, -1.00, 168.0, 199.2)">p</text><text xml:space="preserve" font-family="CourierNewPSMT,Courier New" font-size="29.0" fill="#000000" transform="matrix(1.00, 0.00, -0.00, -1.00, 185.4, 199.2)">e</text><text xml:space="preserve" font-family="CourierNewPSMT,Courier New" font-size="29.0" fill="#000000" transform="matrix(1.00, 0.00, -0.00, -1.00, 202.8, 199.2)">S</text><text xml:space="preserve" font-family="CourierNewPSMT,Courier New" font-size="29.0" fill="#000000" transform="matrix(1.00, 0.00, -0.00, -1.00, 220.2, 199.2)">t</text><text xml:space="preserve" font-family="CourierNewPSMT,Courier New" font-size="29.0" fill="#000000" transform="matrix(1.00, 0.00, -0.00, -1.00, 237.7, 199.2)">r</text><text xml:space="preserve" font-family="CourierNewPSMT,Courier New" font-size="29.0" fill="#000000" transform="matrix(1.00, 0.00, -0.00, -1.00, 255.1, 199.2)"> </text><text xml:space="preserve" font-family="CourierNewPSMT,Courier New" font-size="29.0" fill="#000000" transform="matrix(1.00, 0.00, -0.00, -1.00, 272.5, 199.2)">:</text><text xml:space="preserve" font-family="CourierNewPSMT,Courier New" font-size="29.0" fill="#000000" transform="matrix(1.00, 0.00, -0.00, -1.00, 289.9, 199.2)">=</text><text xml:space="preserve" font-family="CourierNewPSMT,Courier New" font-size="29.0" fill="#000000" transform="matrix(1.00, 0.00, -0.00, -1.00, 307.3, 199.2)"> </text><text xml:space="preserve" font-family="CourierNewPSMT,Courier New" font-size="29.0" fill="#CC1C00" transform="matrix(1.00, 0.00, -0.00, -1.00, 324.6, 199.2)">"</text><text xml:space="preserve" font-family="CourierNewPSMT,Courier New" font-size="29.0" fill="#CC1C00" transform="matrix(1.00, 0.00, -0.00, -1.00, 342.0, 199.2)">a</text><text xml:space="preserve" font-family="CourierNewPSMT,Courier New" font-size="29.0" fill="#CC1C00" transform="matrix(1.00, 0.00, -0.00, -1.00, 359.5, 199.2)"> </text><text xml:space="preserve" font-family="CourierNewPSMT,Courier New" font-size="29.0" fill="#CC1C00" transform="matrix(1.00, 0.00, -0.00, -1.00, 376.9, 199.2)">d</text><text xml:space="preserve" font-family="CourierNewPSMT,Courier New" font-size="29.0" fill="#CC1C00" transform="matrix(1.00, 0.00, -0.00, -1.00, 394.3, 199.2)">e</text><text xml:space="preserve" font-family="CourierNewPSMT,Courier New" font-size="29.0" fill="#CC1C00" transform="matrix(1.00, 0.00, -0.00, -1.00, 411.7, 199.2)">f</text><text xml:space="preserve" font-family="CourierNewPSMT,Courier New" font-size="29.0" fill="#CC1C00" transform="matrix(1.00, 0.00, -0.00, -1.00, 429.1, 199.2)">a</text><text xml:space="preserve" font-family="CourierNewPSMT,Courier New" font-size="29.0" fill="#CC1C00" transform="matrix(1.00, 0.00, -0.00, -1.00, 446.5, 199.2)">u</text><text xml:space="preserve" font-family="CourierNewPSMT,Courier New" font-size="29.0" fill="#CC1C00" transform="matrix(1.00, 0.00, -0.00, -1.00, 463.9, 199.2)">l</text><text xml:space="preserve" font-family="CourierNewPSMT,Courier New" font-size="29.0" fill="#CC1C00" transform="matrix(1.00, 0.00, -0.00, -1.00, 481.3, 199.2)">t</text><text xml:space="preserve" font-family="CourierNewPSMT,Courier New" font-size="29.0" fill="#CC1C00" transform="matrix(1.00, 0.00, -0.00, -1.00, 498.7, 199.2)"> </text><text xml:space="preserve" font-family="CourierNewPSMT,Courier New" font-size="29.0" fill="#CC1C00" transform="matrix(1.00, 0.00, -0.00, -1.00, 516.1, 199.2)">s</text><text xml:space="preserve" font-family="CourierNewPSMT,Courier New" font-size="29.0" fill="#CC1C00" transform="matrix(1.00, 0.00, -0.00, -1.00, 533.5, 199.2)">t</text><text xml:space="preserve" font-family="CourierNewPSMT,Courier New" font-size="29.0" fill="#CC1C00" transform="matrix(1.00, 0.00, -0.00, -1.00, 550.9, 199.2)">r</text><text xml:space="preserve" font-family="CourierNewPSMT,Courier New" font-size="29.0" fill="#CC1C00" transform="matrix(1.00, 0.00, -0.00, -1.00, 568.3, 199.2)">i</text><text xml:space="preserve" font-family="CourierNewPSMT,Courier New" font-size="29.0" fill="#CC1C00" transform="matrix(1.00, 0.00, -0.00, -1.00, 585.7, 199.2)">n</text><text xml:space="preserve" font-family="CourierNewPSMT,Courier New" font-size="29.0" fill="#CC1C00" transform="matrix(1.00, 0.00, -0.00, -1.00, 603.1, 199.2)">g</text><text xml:space="preserve" font-family="CourierNewPSMT,Courier New" font-size="29.0" fill="#CC1C00" transform="matrix(1.00, 0.00, -0.00, -1.00, 620.5, 199.2)">"</text><text xml:space="preserve" font-family="CourierNewPSMT,Courier New" font-size="29.0" fill="#CC1C00" transform="matrix(1.00, 0.00, -0.00, -1.00, 637.9, 199.2)"> </text><text xml:space="preserve" font-family="CourierNewPSMT,Courier New" font-size="29.0" fill="#000000" transform="matrix(1.00, 0.00, -0.00, -1.00, 81.0, 166.2)">d</text><text xml:space="preserve" font-family="CourierNewPSMT,Courier New" font-size="29.0" fill="#000000" transform="matrix(1.00, 0.00, -0.00, -1.00, 98.4, 166.2)">e</text><text xml:space="preserve" font-family="CourierNewPSMT,Courier New" font-size="29.0" fill="#000000" transform="matrix(1.00, 0.00, -0.00, -1.00, 115.8, 166.2)">f</text><text xml:space="preserve" font-family="CourierNewPSMT,Courier New" font-size="29.0" fill="#000000" transform="matrix(1.00, 0.00, -0.00, -1.00, 133.2, 166.2)">T</text><text xml:space="preserve" font-family="CourierNewPSMT,Courier New" font-size="29.0" fill="#000000" transform="matrix(1.00, 0.00, -0.00, -1.00, 150.6, 166.2)">y</text><text xml:space="preserve" font-family="CourierNewPSMT,Courier New" font-size="29.0" fill="#000000" transform="matrix(1.00, 0.00, -0.00, -1.00, 168.0, 166.2)">p</text><text xml:space="preserve" font-family="CourierNewPSMT,Courier New" font-size="29.0" fill="#000000" transform="matrix(1.00, 0.00, -0.00, -1.00, 185.4, 166.2)">e</text><text xml:space="preserve" font-family="CourierNewPSMT,Courier New" font-size="29.0" fill="#000000" transform="matrix(1.00, 0.00, -0.00, -1.00, 202.8, 166.2)">I</text><text xml:space="preserve" font-family="CourierNewPSMT,Courier New" font-size="29.0" fill="#000000" transform="matrix(1.00, 0.00, -0.00, -1.00, 220.2, 166.2)">n</text><text xml:space="preserve" font-family="CourierNewPSMT,Courier New" font-size="29.0" fill="#000000" transform="matrix(1.00, 0.00, -0.00, -1.00, 237.7, 166.2)">t</text><text xml:space="preserve" font-family="CourierNewPSMT,Courier New" font-size="29.0" fill="#000000" transform="matrix(1.00, 0.00, -0.00, -1.00, 255.1, 166.2)"> </text><text xml:space="preserve" font-family="CourierNewPSMT,Courier New" font-size="29.0" fill="#000000" transform="matrix(1.00, 0.00, -0.00, -1.00, 272.5, 166.2)">:</text><text xml:space="preserve" font-family="CourierNewPSMT,Courier New" font-size="29.0" fill="#000000" transform="matrix(1.00, 0.00, -0.00, -1.00, 289.9, 166.2)">=</text><text xml:space="preserve" font-family="CourierNewPSMT,Courier New" font-size="29.0" fill="#000000" transform="matrix(1.00, 0.00, -0.00, -1.00, 307.3, 166.2)"> </text><text xml:space="preserve" font-family="CourierNewPSMT,Courier New" font-size="29.0" fill="#BE8F00" transform="matrix(1.00, 0.00, -0.00, -1.00, 324.6, 166.2)">1</text><text xml:space="preserve" font-family="CourierNewPSMT,Courier New" font-size="29.0" fill="#000000" transform="matrix(1.00, 0.00, -0.00, -1.00, 342.0, 166.2)"> </text><image xlink:href="../../0099E750-43F4-4A1E-80C1-2076B752852F/assets/D0D726D06DEC031283EA40732803C79C.png" width="600.00" height="600.00" transform="matrix(0.43, 0.00, -0.00, -0.43, 764.0, 260.0)"></image></g></svg>