<?xml version="1.0" encoding="UTF-8" standalone="no"?><svg xmlns="http://www.w3.org/2000/svg" xmlns:xlink="http://www.w3.org/1999/xlink" clip-rule="evenodd" stroke-miterlimit="10" viewBox="0 0 1024 768"><desc>SVG generated by Keynote</desc><defs></defs><g transform="matrix(1.00, 0.00, -0.00, -1.00, 0.0, 768.0)"><path d="M 0.0 768.0 L 1024.0 768.0 L 1024.0 0.0 L 0.0 0.0 Z M 0.0 768.0 " fill="#FEFFFF"></path><text xml:space="preserve" font-family="Helvetica-Light,Helvetica" font-size="60.0" fill="#000000" transform="matrix(1.00, 0.00, -0.00, -1.00, 79.0, 625.8)">M</text><text xml:space="preserve" font-family="Helvetica-Light,Helvetica" font-size="60.0" fill="#000000" transform="matrix(1.00, 0.00, -0.00, -1.00, 129.0, 625.8)">a</text><text xml:space="preserve" font-family="Helvetica-Light,Helvetica" font-size="60.0" fill="#000000" transform="matrix(1.00, 0.00, -0.00, -1.00, 162.3, 625.8)">p</text><text xml:space="preserve" font-family="Helvetica-Light,Helvetica" font-size="60.0" fill="#000000" transform="matrix(1.00, 0.00, -0.00, -1.00, 199.0, 625.8)">s</text><text xml:space="preserve" font-family="CourierNewPSMT,Courier New" font-size="30.0" fill="#000000" transform="matrix(1.00, 0.00, -0.00, -1.00, 81.0, 501.0)">m</text><text xml:space="preserve" font-family="CourierNewPSMT,Courier New" font-size="30.0" fill="#000000" transform="matrix(1.00, 0.00, -0.00, -1.00, 99.0, 501.0)">y</text><text xml:space="preserve" font-family="CourierNewPSMT,Courier New" font-size="30.0" fill="#000000" transform="matrix(1.00, 0.00, -0.00, -1.00, 117.0, 501.0)">M</text><text xml:space="preserve" font-family="CourierNewPSMT,Courier New" font-size="30.0" fill="#000000" transform="matrix(1.00, 0.00, -0.00, -1.00, 135.0, 501.0)">a</text><text xml:space="preserve" font-family="CourierNewPSMT,Courier New" font-size="30.0" fill="#000000" transform="matrix(1.00, 0.00, -0.00, -1.00, 153.0, 501.0)">p</text><text xml:space="preserve" font-family="CourierNewPSMT,Courier New" font-size="30.0" fill="#000000" transform="matrix(1.00, 0.00, -0.00, -1.00, 171.0, 501.0)"> </text><text xml:space="preserve" font-family="CourierNewPSMT,Courier New" font-size="30.0" fill="#000000" transform="matrix(1.00, 0.00, -0.00, -1.00, 189.0, 501.0)">:</text><text xml:space="preserve" font-family="CourierNewPSMT,Courier New" font-size="30.0" fill="#000000" transform="matrix(1.00, 0.00, -0.00, -1.00, 207.0, 501.0)">=</text><text xml:space="preserve" font-family="CourierNewPSMT,Courier New" font-size="30.0" fill="#000000" transform="matrix(1.00, 0.00, -0.00, -1.00, 225.0, 501.0)"> </text><text xml:space="preserve" font-family="CourierNewPSMT,Courier New" font-size="30.0" fill="#006DBC" transform="matrix(1.00, 0.00, -0.00, -1.00, 243.0, 501.0)">m</text><text xml:space="preserve" font-family="CourierNewPSMT,Courier New" font-size="30.0" fill="#006DBC" transform="matrix(1.00, 0.00, -0.00, -1.00, 261.0, 501.0)">a</text><text xml:space="preserve" font-family="CourierNewPSMT,Courier New" font-size="30.0" fill="#006DBC" transform="matrix(1.00, 0.00, -0.00, -1.00, 279.0, 501.0)">k</text><text xml:space="preserve" font-family="CourierNewPSMT,Courier New" font-size="30.0" fill="#006DBC" transform="matrix(1.00, 0.00, -0.00, -1.00, 297.0, 501.0)">e</text><text xml:space="preserve" font-family="CourierNewPSMT,Courier New" font-size="30.0" fill="#000000" transform="matrix(1.00, 0.00, -0.00, -1.00, 315.0, 501.0)">(</text><text xml:space="preserve" font-family="CourierNewPS-BoldMT,Courier New" font-weight="bold" font-size="30.0" fill="#000000" transform="matrix(1.00, 0.00, -0.00, -1.00, 333.0, 501.0)">m</text><text xml:space="preserve" font-family="CourierNewPS-BoldMT,Courier New" font-weight="bold" font-size="30.0" fill="#000000" transform="matrix(1.00, 0.00, -0.00, -1.00, 351.0, 501.0)">a</text><text xml:space="preserve" font-family="CourierNewPS-BoldMT,Courier New" font-weight="bold" font-size="30.0" fill="#000000" transform="matrix(1.00, 0.00, -0.00, -1.00, 369.1, 501.0)">p</text><text xml:space="preserve" font-family="CourierNewPSMT,Courier New" font-size="30.0" fill="#000000" transform="matrix(1.00, 0.00, -0.00, -1.00, 387.0, 501.0)">[</text><text xml:space="preserve" font-family="CourierNewPSMT,Courier New" font-size="30.0" fill="#006DBC" transform="matrix(1.00, 0.00, -0.00, -1.00, 405.1, 501.0)">s</text><text xml:space="preserve" font-family="CourierNewPSMT,Courier New" font-size="30.0" fill="#006DBC" transform="matrix(1.00, 0.00, -0.00, -1.00, 423.1, 501.0)">t</text><text xml:space="preserve" font-family="CourierNewPSMT,Courier New" font-size="30.0" fill="#006DBC" transform="matrix(1.00, 0.00, -0.00, -1.00, 441.1, 501.0)">r</text><text xml:space="preserve" font-family="CourierNewPSMT,Courier New" font-size="30.0" fill="#006DBC" transform="matrix(1.00, 0.00, -0.00, -1.00, 459.1, 501.0)">i</text><text xml:space="preserve" font-family="CourierNewPSMT,Courier New" font-size="30.0" fill="#006DBC" transform="matrix(1.00, 0.00, -0.00, -1.00, 477.1, 501.0)">n</text><text xml:space="preserve" font-family="CourierNewPSMT,Courier New" font-size="30.0" fill="#006DBC" transform="matrix(1.00, 0.00, -0.00, -1.00, 495.1, 501.0)">g</text><text xml:space="preserve" font-family="CourierNewPSMT,Courier New" font-size="30.0" fill="#000000" transform="matrix(1.00, 0.00, -0.00, -1.00, 513.1, 501.0)">]</text><text xml:space="preserve" font-family="CourierNewPSMT,Courier New" font-size="30.0" fill="#006DBC" transform="matrix(1.00, 0.00, -0.00, -1.00, 531.1, 501.0)">i</text><text xml:space="preserve" font-family="CourierNewPSMT,Courier New" font-size="30.0" fill="#006DBC" transform="matrix(1.00, 0.00, -0.00, -1.00, 549.1, 501.0)">n</text><text xml:space="preserve" font-family="CourierNewPSMT,Courier New" font-size="30.0" fill="#006DBC" transform="matrix(1.00, 0.00, -0.00, -1.00, 567.1, 501.0)">t</text><text xml:space="preserve" font-family="CourierNewPSMT,Courier New" font-size="30.0" fill="#000000" transform="matrix(1.00, 0.00, -0.00, -1.00, 585.1, 501.0)">)</text><text xml:space="preserve" font-family="CourierNewPSMT,Courier New" font-size="30.0" fill="#000000" transform="matrix(1.00, 0.00, -0.00, -1.00, 603.1, 501.0)"> </text><text xml:space="preserve" font-family="CourierNewPSMT,Courier New" font-size="30.0" fill="#000000" transform="matrix(1.00, 0.00, -0.00, -1.00, 81.0, 467.0)">m</text><text xml:space="preserve" font-family="CourierNewPSMT,Courier New" font-size="30.0" fill="#000000" transform="matrix(1.00, 0.00, -0.00, -1.00, 99.0, 467.0)">y</text><text xml:space="preserve" font-family="CourierNewPSMT,Courier New" font-size="30.0" fill="#000000" transform="matrix(1.00, 0.00, -0.00, -1.00, 117.0, 467.0)">M</text><text xml:space="preserve" font-family="CourierNewPSMT,Courier New" font-size="30.0" fill="#000000" transform="matrix(1.00, 0.00, -0.00, -1.00, 135.0, 467.0)">a</text><text xml:space="preserve" font-family="CourierNewPSMT,Courier New" font-size="30.0" fill="#000000" transform="matrix(1.00, 0.00, -0.00, -1.00, 153.0, 467.0)">p</text><text xml:space="preserve" font-family="CourierNewPSMT,Courier New" font-size="30.0" fill="#000000" transform="matrix(1.00, 0.00, -0.00, -1.00, 171.0, 467.0)">[</text><text xml:space="preserve" font-family="CourierNewPSMT,Courier New" font-size="30.0" fill="#CC1C00" transform="matrix(1.00, 0.00, -0.00, -1.00, 189.0, 467.0)">"</text><text xml:space="preserve" font-family="CourierNewPSMT,Courier New" font-size="30.0" fill="#CC1C00" transform="matrix(1.00, 0.00, -0.00, -1.00, 207.0, 467.0)">a</text><text xml:space="preserve" font-family="CourierNewPSMT,Courier New" font-size="30.0" fill="#CC1C00" transform="matrix(1.00, 0.00, -0.00, -1.00, 225.0, 467.0)">"</text><text xml:space="preserve" font-family="CourierNewPSMT,Courier New" font-size="30.0" fill="#000000" transform="matrix(1.00, 0.00, -0.00, -1.00, 243.0, 467.0)">]</text><text xml:space="preserve" font-family="CourierNewPSMT,Courier New" font-size="30.0" fill="#000000" transform="matrix(1.00, 0.00, -0.00, -1.00, 261.0, 467.0)"> </text><text xml:space="preserve" font-family="CourierNewPSMT,Courier New" font-size="30.0" fill="#000000" transform="matrix(1.00, 0.00, -0.00, -1.00, 279.0, 467.0)">=</text><text xml:space="preserve" font-family="CourierNewPSMT,Courier New" font-size="30.0" fill="#000000" transform="matrix(1.00, 0.00, -0.00, -1.00, 297.0, 467.0)"> </text><text xml:space="preserve" font-family="CourierNewPSMT,Courier New" font-size="30.0" fill="#BE8F00" transform="matrix(1.00, 0.00, -0.00, -1.00, 315.0, 467.0)">1</text><text xml:space="preserve" font-family="CourierNewPSMT,Courier New" font-size="30.0" fill="#BE8F00" transform="matrix(1.00, 0.00, -0.00, -1.00, 333.0, 467.0)"> </text><text xml:space="preserve" font-family="CourierNewPSMT,Courier New" font-size="30.0" fill="#021993" transform="matrix(1.00, 0.00, -0.00, -1.00, 81.0, 399.0)">d</text><text xml:space="preserve" font-family="CourierNewPSMT,Courier New" font-size="30.0" fill="#021993" transform="matrix(1.00, 0.00, -0.00, -1.00, 99.0, 399.0)">e</text><text xml:space="preserve" font-family="CourierNewPSMT,Courier New" font-size="30.0" fill="#021993" transform="matrix(1.00, 0.00, -0.00, -1.00, 117.0, 399.0)">l</text><text xml:space="preserve" font-family="CourierNewPSMT,Courier New" font-size="30.0" fill="#021993" transform="matrix(1.00, 0.00, -0.00, -1.00, 135.0, 399.0)">e</text><text xml:space="preserve" font-family="CourierNewPSMT,Courier New" font-size="30.0" fill="#021993" transform="matrix(1.00, 0.00, -0.00, -1.00, 153.0, 399.0)">t</text><text xml:space="preserve" font-family="CourierNewPSMT,Courier New" font-size="30.0" fill="#021993" transform="matrix(1.00, 0.00, -0.00, -1.00, 171.0, 399.0)">e</text><text xml:space="preserve" font-family="CourierNewPSMT,Courier New" font-size="30.0" fill="#000000" transform="matrix(1.00, 0.00, -0.00, -1.00, 189.0, 399.0)">(</text><text xml:space="preserve" font-family="CourierNewPSMT,Courier New" font-size="30.0" fill="#000000" transform="matrix(1.00, 0.00, -0.00, -1.00, 207.0, 399.0)">m</text><text xml:space="preserve" font-family="CourierNewPSMT,Courier New" font-size="30.0" fill="#000000" transform="matrix(1.00, 0.00, -0.00, -1.00, 225.0, 399.0)">y</text><text xml:space="preserve" font-family="CourierNewPSMT,Courier New" font-size="30.0" fill="#000000" transform="matrix(1.00, 0.00, -0.00, -1.00, 243.0, 399.0)">M</text><text xml:space="preserve" font-family="CourierNewPSMT,Courier New" font-size="30.0" fill="#000000" transform="matrix(1.00, 0.00, -0.00, -1.00, 261.0, 399.0)">a</text><text xml:space="preserve" font-family="CourierNewPSMT,Courier New" font-size="30.0" fill="#000000" transform="matrix(1.00, 0.00, -0.00, -1.00, 279.0, 399.0)">p</text><text xml:space="preserve" font-family="CourierNewPSMT,Courier New" font-size="30.0" fill="#000000" transform="matrix(1.00, 0.00, -0.00, -1.00, 297.1, 399.0)">,</text><text xml:space="preserve" font-family="CourierNewPSMT,Courier New" font-size="30.0" fill="#000000" transform="matrix(1.00, 0.00, -0.00, -1.00, 315.1, 399.0)"> </text><text xml:space="preserve" font-family="CourierNewPSMT,Courier New" font-size="30.0" fill="#CC1C00" transform="matrix(1.00, 0.00, -0.00, -1.00, 333.0, 399.0)">“</text><text xml:space="preserve" font-family="CourierNewPSMT,Courier New" font-size="30.0" fill="#CC1C00" transform="matrix(1.00, 0.00, -0.00, -1.00, 351.0, 399.0)">1</text><text xml:space="preserve" font-family="CourierNewPSMT,Courier New" font-size="30.0" fill="#CC1C00" transform="matrix(1.00, 0.00, -0.00, -1.00, 369.1, 399.0)">2</text><text xml:space="preserve" font-family="CourierNewPSMT,Courier New" font-size="30.0" fill="#CC1C00" transform="matrix(1.00, 0.00, -0.00, -1.00, 387.1, 399.0)">3</text><text xml:space="preserve" font-family="CourierNewPSMT,Courier New" font-size="30.0" fill="#CC1C00" transform="matrix(1.00, 0.00, -0.00, -1.00, 405.1, 399.0)">4</text><text xml:space="preserve" font-family="CourierNewPSMT,Courier New" font-size="30.0" fill="#CC1C00" transform="matrix(1.00, 0.00, -0.00, -1.00, 423.1, 399.0)">5</text><text xml:space="preserve" font-family="CourierNewPSMT,Courier New" font-size="30.0" fill="#CC1C00" transform="matrix(1.00, 0.00, -0.00, -1.00, 441.1, 399.0)">"</text><text xml:space="preserve" font-family="CourierNewPSMT,Courier New" font-size="30.0" fill="#000000" transform="matrix(1.00, 0.00, -0.00, -1.00, 459.1, 399.0)">)</text><text xml:space="preserve" font-family="CourierNewPSMT,Courier New" font-size="30.0" fill="#000000" transform="matrix(1.00, 0.00, -0.00, -1.00, 477.1, 399.0)"> </text><text xml:space="preserve" font-family="CourierNewPSMT,Courier New" font-size="30.0" fill="#000000" transform="matrix(1.00, 0.00, -0.00, -1.00, 81.0, 331.0)">a</text><text xml:space="preserve" font-family="CourierNewPSMT,Courier New" font-size="30.0" fill="#000000" transform="matrix(1.00, 0.00, -0.00, -1.00, 99.0, 331.0)"> </text><text xml:space="preserve" font-family="CourierNewPSMT,Courier New" font-size="30.0" fill="#000000" transform="matrix(1.00, 0.00, -0.00, -1.00, 117.0, 331.0)">:</text><text xml:space="preserve" font-family="CourierNewPSMT,Courier New" font-size="30.0" fill="#000000" transform="matrix(1.00, 0.00, -0.00, -1.00, 135.0, 331.0)">=</text><text xml:space="preserve" font-family="CourierNewPSMT,Courier New" font-size="30.0" fill="#000000" transform="matrix(1.00, 0.00, -0.00, -1.00, 153.0, 331.0)"> </text><text xml:space="preserve" font-family="CourierNewPSMT,Courier New" font-size="30.0" fill="#000000" transform="matrix(1.00, 0.00, -0.00, -1.00, 171.0, 331.0)">m</text><text xml:space="preserve" font-family="CourierNewPSMT,Courier New" font-size="30.0" fill="#000000" transform="matrix(1.00, 0.00, -0.00, -1.00, 189.0, 331.0)">y</text><text xml:space="preserve" font-family="CourierNewPSMT,Courier New" font-size="30.0" fill="#000000" transform="matrix(1.00, 0.00, -0.00, -1.00, 207.0, 331.0)">M</text><text xml:space="preserve" font-family="CourierNewPSMT,Courier New" font-size="30.0" fill="#000000" transform="matrix(1.00, 0.00, -0.00, -1.00, 225.0, 331.0)">a</text><text xml:space="preserve" font-family="CourierNewPSMT,Courier New" font-size="30.0" fill="#000000" transform="matrix(1.00, 0.00, -0.00, -1.00, 243.1, 331.0)">p</text><text xml:space="preserve" font-family="CourierNewPSMT,Courier New" font-size="30.0" fill="#000000" transform="matrix(1.00, 0.00, -0.00, -1.00, 261.1, 331.0)">[</text><text xml:space="preserve" font-family="CourierNewPSMT,Courier New" font-size="30.0" fill="#CC1C00" transform="matrix(1.00, 0.00, -0.00, -1.00, 279.0, 331.0)">"</text><text xml:space="preserve" font-family="CourierNewPSMT,Courier New" font-size="30.0" fill="#CC1C00" transform="matrix(1.00, 0.00, -0.00, -1.00, 297.0, 331.0)">a</text><text xml:space="preserve" font-family="CourierNewPSMT,Courier New" font-size="30.0" fill="#CC1C00" transform="matrix(1.00, 0.00, -0.00, -1.00, 315.0, 331.0)">"</text><text xml:space="preserve" font-family="CourierNewPSMT,Courier New" font-size="30.0" fill="#000000" transform="matrix(1.00, 0.00, -0.00, -1.00, 333.0, 331.0)">]</text><text xml:space="preserve" font-family="CourierNewPSMT,Courier New" font-size="30.0" fill="#000000" transform="matrix(1.00, 0.00, -0.00, -1.00, 351.0, 331.0)"> </text><text xml:space="preserve" font-family="CourierNewPSMT,Courier New" font-size="30.0" fill="#000000" transform="matrix(1.00, 0.00, -0.00, -1.00, 81.0, 297.0)">f</text><text xml:space="preserve" font-family="CourierNewPSMT,Courier New" font-size="30.0" fill="#000000" transform="matrix(1.00, 0.00, -0.00, -1.00, 99.0, 297.0)">m</text><text xml:space="preserve" font-family="CourierNewPSMT,Courier New" font-size="30.0" fill="#000000" transform="matrix(1.00, 0.00, -0.00, -1.00, 117.0, 297.0)">t</text><text xml:space="preserve" font-family="CourierNewPSMT,Courier New" font-size="30.0" fill="#000000" transform="matrix(1.00, 0.00, -0.00, -1.00, 135.0, 297.0)">.</text><text xml:space="preserve" font-family="CourierNewPSMT,Courier New" font-size="30.0" fill="#021993" transform="matrix(1.00, 0.00, -0.00, -1.00, 153.0, 297.0)">P</text><text xml:space="preserve" font-family="CourierNewPSMT,Courier New" font-size="30.0" fill="#021993" transform="matrix(1.00, 0.00, -0.00, -1.00, 171.0, 297.0)">r</text><text xml:space="preserve" font-family="CourierNewPSMT,Courier New" font-size="30.0" fill="#021993" transform="matrix(1.00, 0.00, -0.00, -1.00, 189.0, 297.0)">i</text><text xml:space="preserve" font-family="CourierNewPSMT,Courier New" font-size="30.0" fill="#021993" transform="matrix(1.00, 0.00, -0.00, -1.00, 207.0, 297.0)">n</text><text xml:space="preserve" font-family="CourierNewPSMT,Courier New" font-size="30.0" fill="#021993" transform="matrix(1.00, 0.00, -0.00, -1.00, 225.0, 297.0)">t</text><text xml:space="preserve" font-family="CourierNewPSMT,Courier New" font-size="30.0" fill="#021993" transform="matrix(1.00, 0.00, -0.00, -1.00, 243.0, 297.0)">f</text><text xml:space="preserve" font-family="CourierNewPSMT,Courier New" font-size="30.0" fill="#000000" transform="matrix(1.00, 0.00, -0.00, -1.00, 261.0, 297.0)">(</text><text xml:space="preserve" font-family="CourierNewPSMT,Courier New" font-size="30.0" fill="#CC1C00" transform="matrix(1.00, 0.00, -0.00, -1.00, 279.0, 297.0)">"</text><text xml:space="preserve" font-family="CourierNewPSMT,Courier New" font-size="30.0" fill="#CC1C00" transform="matrix(1.00, 0.00, -0.00, -1.00, 297.0, 297.0)">m</text><text xml:space="preserve" font-family="CourierNewPSMT,Courier New" font-size="30.0" fill="#CC1C00" transform="matrix(1.00, 0.00, -0.00, -1.00, 315.0, 297.0)">y</text><text xml:space="preserve" font-family="CourierNewPSMT,Courier New" font-size="30.0" fill="#CC1C00" transform="matrix(1.00, 0.00, -0.00, -1.00, 333.0, 297.0)">M</text><text xml:space="preserve" font-family="CourierNewPSMT,Courier New" font-size="30.0" fill="#CC1C00" transform="matrix(1.00, 0.00, -0.00, -1.00, 351.1, 297.0)">a</text><text xml:space="preserve" font-family="CourierNewPSMT,Courier New" font-size="30.0" fill="#CC1C00" transform="matrix(1.00, 0.00, -0.00, -1.00, 369.1, 297.0)">p</text><text xml:space="preserve" font-family="CourierNewPSMT,Courier New" font-size="30.0" fill="#CC1C00" transform="matrix(1.00, 0.00, -0.00, -1.00, 387.1, 297.0)">[</text><text xml:space="preserve" font-family="CourierNewPSMT,Courier New" font-size="30.0" fill="#FF40FF" transform="matrix(1.00, 0.00, -0.00, -1.00, 405.1, 297.0)">\</text><text xml:space="preserve" font-family="CourierNewPSMT,Courier New" font-size="30.0" fill="#FF40FF" transform="matrix(1.00, 0.00, -0.00, -1.00, 423.1, 297.0)">"</text><text xml:space="preserve" font-family="CourierNewPSMT,Courier New" font-size="30.0" fill="#CC1C00" transform="matrix(1.00, 0.00, -0.00, -1.00, 441.1, 297.0)">a</text><text xml:space="preserve" font-family="CourierNewPSMT,Courier New" font-size="30.0" fill="#FF40FF" transform="matrix(1.00, 0.00, -0.00, -1.00, 459.1, 297.0)">\</text><text xml:space="preserve" font-family="CourierNewPSMT,Courier New" font-size="30.0" fill="#FF40FF" transform="matrix(1.00, 0.00, -0.00, -1.00, 477.1, 297.0)">"</text><text xml:space="preserve" font-family="CourierNewPSMT,Courier New" font-size="30.0" fill="#CC1C00" transform="matrix(1.00, 0.00, -0.00, -1.00, 495.1, 297.0)">]</text><text xml:space="preserve" font-family="CourierNewPSMT,Courier New" font-size="30.0" fill="#CC1C00" transform="matrix(1.00, 0.00, -0.00, -1.00, 513.1, 297.0)">:</text><text xml:space="preserve" font-family="CourierNewPSMT,Courier New" font-size="30.0" fill="#000000" transform="matrix(1.00, 0.00, -0.00, -1.00, 531.1, 297.0)"> </text><text xml:space="preserve" font-family="CourierNewPSMT,Courier New" font-size="30.0" fill="#006DBC" transform="matrix(1.00, 0.00, -0.00, -1.00, 549.1, 297.0)">%</text><text xml:space="preserve" font-family="CourierNewPSMT,Courier New" font-size="30.0" fill="#006DBC" transform="matrix(1.00, 0.00, -0.00, -1.00, 567.1, 297.0)">v</text><text xml:space="preserve" font-family="CourierNewPSMT,Courier New" font-size="30.0" fill="#FF40FF" transform="matrix(1.00, 0.00, -0.00, -1.00, 585.1, 297.0)">\</text><text xml:space="preserve" font-family="CourierNewPSMT,Courier New" font-size="30.0" fill="#FF40FF" transform="matrix(1.00, 0.00, -0.00, -1.00, 603.1, 297.0)">n</text><text xml:space="preserve" font-family="CourierNewPSMT,Courier New" font-size="30.0" fill="#CC1C00" transform="matrix(1.00, 0.00, -0.00, -1.00, 621.1, 297.0)">"</text><text xml:space="preserve" font-family="CourierNewPSMT,Courier New" font-size="30.0" fill="#000000" transform="matrix(1.00, 0.00, -0.00, -1.00, 639.1, 297.0)">,</text><text xml:space="preserve" font-family="CourierNewPSMT,Courier New" font-size="30.0" fill="#000000" transform="matrix(1.00, 0.00, -0.00, -1.00, 657.1, 297.0)"> </text><text xml:space="preserve" font-family="CourierNewPSMT,Courier New" font-size="30.0" fill="#000000" transform="matrix(1.00, 0.00, -0.00, -1.00, 675.1, 297.0)">a</text><text xml:space="preserve" font-family="CourierNewPSMT,Courier New" font-size="30.0" fill="#000000" transform="matrix(1.00, 0.00, -0.00, -1.00, 693.1, 297.0)">)</text><text xml:space="preserve" font-family="CourierNewPSMT,Courier New" font-size="30.0" fill="#000000" transform="matrix(1.00, 0.00, -0.00, -1.00, 711.1, 297.0)"> </text><text xml:space="preserve" font-family="CourierNewPSMT,Courier New" font-size="30.0" fill="#000000" transform="matrix(1.00, 0.00, -0.00, -1.00, 81.0, 263.0)">_</text><text xml:space="preserve" font-family="CourierNewPSMT,Courier New" font-size="30.0" fill="#000000" transform="matrix(1.00, 0.00, -0.00, -1.00, 99.0, 263.0)">,</text><text xml:space="preserve" font-family="CourierNewPSMT,Courier New" font-size="30.0" fill="#000000" transform="matrix(1.00, 0.00, -0.00, -1.00, 117.0, 263.0)"> </text><text xml:space="preserve" font-family="CourierNewPSMT,Courier New" font-size="30.0" fill="#000000" transform="matrix(1.00, 0.00, -0.00, -1.00, 135.0, 263.0)">o</text><text xml:space="preserve" font-family="CourierNewPSMT,Courier New" font-size="30.0" fill="#000000" transform="matrix(1.00, 0.00, -0.00, -1.00, 153.0, 263.0)">k</text><text xml:space="preserve" font-family="CourierNewPSMT,Courier New" font-size="30.0" fill="#000000" transform="matrix(1.00, 0.00, -0.00, -1.00, 171.0, 263.0)"> </text><text xml:space="preserve" font-family="CourierNewPSMT,Courier New" font-size="30.0" fill="#000000" transform="matrix(1.00, 0.00, -0.00, -1.00, 189.0, 263.0)">:</text><text xml:space="preserve" font-family="CourierNewPSMT,Courier New" font-size="30.0" fill="#000000" transform="matrix(1.00, 0.00, -0.00, -1.00, 207.0, 263.0)">=</text><text xml:space="preserve" font-family="CourierNewPSMT,Courier New" font-size="30.0" fill="#000000" transform="matrix(1.00, 0.00, -0.00, -1.00, 225.0, 263.0)"> </text><text xml:space="preserve" font-family="CourierNewPSMT,Courier New" font-size="30.0" fill="#000000" transform="matrix(1.00, 0.00, -0.00, -1.00, 243.1, 263.0)">m</text><text xml:space="preserve" font-family="CourierNewPSMT,Courier New" font-size="30.0" fill="#000000" transform="matrix(1.00, 0.00, -0.00, -1.00, 261.1, 263.0)">y</text><text xml:space="preserve" font-family="CourierNewPSMT,Courier New" font-size="30.0" fill="#000000" transform="matrix(1.00, 0.00, -0.00, -1.00, 279.1, 263.0)">M</text><text xml:space="preserve" font-family="CourierNewPSMT,Courier New" font-size="30.0" fill="#000000" transform="matrix(1.00, 0.00, -0.00, -1.00, 297.1, 263.0)">a</text><text xml:space="preserve" font-family="CourierNewPSMT,Courier New" font-size="30.0" fill="#000000" transform="matrix(1.00, 0.00, -0.00, -1.00, 315.1, 263.0)">p</text><text xml:space="preserve" font-family="CourierNewPSMT,Courier New" font-size="30.0" fill="#000000" transform="matrix(1.00, 0.00, -0.00, -1.00, 333.1, 263.0)">[</text><text xml:space="preserve" font-family="CourierNewPSMT,Courier New" font-size="30.0" fill="#CC1C00" transform="matrix(1.00, 0.00, -0.00, -1.00, 351.0, 263.0)">"</text><text xml:space="preserve" font-family="CourierNewPSMT,Courier New" font-size="30.0" fill="#CC1C00" transform="matrix(1.00, 0.00, -0.00, -1.00, 369.0, 263.0)">a</text><text xml:space="preserve" font-family="CourierNewPSMT,Courier New" font-size="30.0" fill="#CC1C00" transform="matrix(1.00, 0.00, -0.00, -1.00, 387.1, 263.0)">"</text><text xml:space="preserve" font-family="CourierNewPSMT,Courier New" font-size="30.0" fill="#000000" transform="matrix(1.00, 0.00, -0.00, -1.00, 405.1, 263.0)">]</text><text xml:space="preserve" font-family="CourierNewPSMT,Courier New" font-size="30.0" fill="#000000" transform="matrix(1.00, 0.00, -0.00, -1.00, 423.1, 263.0)"> </text><image xlink:href="../../0099E750-43F4-4A1E-80C1-2076B752852F/assets/D0D726D06DEC031283EA40732803C79C.png" width="600.00" height="600.00" transform="matrix(0.43, 0.00, -0.00, -0.43, 764.0, 260.0)"></image></g></svg>